<svg xmlns="http://www.w3.org/2000/svg" width="24.75" height="22" viewBox="0 0 24.75 22">
  <path id="bullhorn-solid" d="M24.75,10.313a2.738,2.738,0,0,0-1.375-2.368V1.375A1.389,1.389,0,0,0,22,0a1.372,1.372,0,0,0-.859.3L17.488,3.225A10.429,10.429,0,0,1,11,5.5H2.75A2.75,2.75,0,0,0,0,8.25v4.125a2.75,2.75,0,0,0,2.75,2.75H4.2A10.442,10.442,0,0,0,4.1,16.5a10.885,10.885,0,0,0,1.1,4.767A1.348,1.348,0,0,0,6.423,22H9.615a1.366,1.366,0,0,0,1.113-2.173A5.472,5.472,0,0,1,9.6,16.5a5.2,5.2,0,0,1,.189-1.375H11A10.427,10.427,0,0,1,17.487,17.4l3.654,2.923a1.374,1.374,0,0,0,2.234-1.073V12.681A2.738,2.738,0,0,0,24.75,10.313Zm-4.125,6.077L19.2,15.253A13.183,13.183,0,0,0,11,12.375V8.25a13.183,13.183,0,0,0,8.2-2.878l1.42-1.136Z" fill="#e01a4f"/>
</svg>
