<svg xmlns="http://www.w3.org/2000/svg" width="25.486" height="25.486" viewBox="0 0 25.486 25.486">
  <g id="Office_Phone_Icon" data-name="Office Phone Icon" transform="translate(-1346.372 -12.757)">
    <path id="phone-solid" d="M21.19,1.047,16.722.015a1.038,1.038,0,0,0-1.182.6L13.478,5.425a1.029,1.029,0,0,0,.3,1.2l2.6,2.131a15.924,15.924,0,0,1-7.614,7.614l-2.131-2.6a1.03,1.03,0,0,0-1.2-.3L.617,15.535a1.044,1.044,0,0,0-.6,1.186L1.047,21.19a1.031,1.031,0,0,0,1.005.8A19.935,19.935,0,0,0,21.99,2.052,1.03,1.03,0,0,0,21.19,1.047Z" transform="translate(1350.201 12.77) rotate(10)" fill="#fff"/>
  </g>
</svg>
